<svg width="2285" height="2602" viewBox="0 0 2285 2602" fill="none" xmlns="http://www.w3.org/2000/svg">
<ellipse cx="1212.11" cy="2274.22" rx="822.887" ry="188.252" transform="rotate(-0.175532 1212.11 2274.22)" fill="#C9C9C9"/>
<path d="M1297.04 2267.67C1294.4 2305.39 1336.04 2304.72 1413.19 2310.12C1484.19 2315.08 1543.05 2316.69 1532.67 2266.48C1522.28 2216.27 1405.16 2229.61 1389.52 2182.47C1312.37 2177.08 1299.68 2229.95 1297.04 2267.67Z" fill="black"/>
<path d="M1307.39 2175.17C1312.65 2221.01 1319.4 2247.45 1353.7 2247.45C1388 2247.45 1412.65 2210.25 1412.65 2162.55C1412.65 2114.84 1406.95 2076.45 1372.65 2076.45C1290.55 2079.98 1302.13 2129.34 1307.39 2175.17Z" fill="black"/>
<path d="M860.629 2267.03C862.852 2309.45 819.996 2307.68 740.508 2311.84C667.35 2315.68 606.736 2316.04 618.083 2259.92C629.429 2203.8 749.824 2221.64 766.543 2169.1C846.031 2164.93 858.406 2224.61 860.629 2267.03Z" fill="black"/>
<path d="M858.729 2174.67C853.225 2217.02 846.163 2241.45 810.291 2241.45C774.42 2241.45 748.643 2207.08 748.643 2163C748.643 2118.92 754.604 2083.45 790.476 2083.45C876.343 2086.71 864.234 2132.32 858.729 2174.67Z" fill="black"/>
<path d="M1184.42 139.023C1187.75 139.287 1192.56 139.698 1198.56 140.286C1210.54 141.462 1227.3 143.351 1246.41 146.205C1284.41 151.88 1332.61 161.497 1371.14 177.32L1371.39 177.425L1371.64 177.54C1479.78 227.603 1528.35 326.645 1557.32 428.166C1571.81 478.929 1581.62 531.162 1591.33 578.789C1601.13 626.833 1610.77 669.887 1624.85 703.972C1653.65 773.692 1706.98 860.002 1761.41 954.941C1815.46 1049.19 1870.15 1151.28 1899.81 1250.51C1924.39 1332.8 1934.9 1458.42 1916.53 1583.24C1898.19 1707.95 1850.68 1834.07 1757.11 1915.07C1589.34 2060.33 1406.7 2117.86 1266.17 2139.09C1195.9 2149.71 1136.08 2151.26 1093.75 2150.16C1072.59 2149.6 1055.78 2148.38 1044.22 2147.29C1038.44 2146.75 1033.96 2146.24 1030.91 2145.86C1029.38 2145.67 1028.21 2145.51 1027.41 2145.4C1027.04 2145.35 1026.75 2145.31 1026.53 2145.28C1026.37 2145.26 1026.23 2145.25 1026.12 2145.24C1026.06 2145.23 1025.97 2145.23 1025.87 2145.21C1025.82 2145.21 1025.74 2145.2 1025.63 2145.18C1025.58 2145.18 1025.5 2145.17 1025.41 2145.15C1025.35 2145.15 1025.27 2145.13 1025.17 2145.11C1023.71 2145.02 1021.8 2144.89 1019.46 2144.71L1019.46 2144.71C1013.95 2144.3 1006.05 2143.63 996.162 2142.6C976.405 2140.53 948.581 2137.02 915.794 2131.16C850.641 2119.53 763.928 2098.31 681.622 2059.73C508.256 1978.47 404.533 1799.47 353.822 1603.57C299.466 1393.59 355.715 1170.25 584.364 894.378C637.751 824.504 671.225 744.477 697.921 660.984C711.333 619.036 722.767 577.13 734.396 535.168C745.897 493.673 757.623 451.993 771.218 412.732C798.166 334.908 834.767 259.248 900.518 206.635C967.934 152.692 1058.16 128.964 1179.29 138.643C1179.29 138.643 1179.3 138.643 1179.3 138.643C1179.36 138.647 1179.45 138.653 1179.57 138.661C1179.8 138.676 1180.14 138.699 1180.58 138.731C1181.47 138.794 1182.76 138.89 1184.42 139.023Z" fill="#606E33" stroke="black" stroke-width="25"/>
<path d="M2002.49 1381.53C2037.8 1357.61 2042.65 1387.95 2098.15 1453.45C2134.46 1507.05 2165.14 1548.56 2130.95 1577.58C2096.76 1606.59 2040.64 1575.49 2004.32 1521.9C1984.37 1528.87 1931.5 1425.53 2002.49 1381.53Z" fill="black"/>
<path d="M1965.87 1519.44C1961.67 1495 1958.23 1461.71 1972.11 1423.18C1995.91 1357.09 2010.89 1456.45 2018.77 1493.57C2026.66 1530.69 2016.76 1560.81 1998.32 1565.76C1979.87 1570.72 1970.08 1543.88 1965.87 1519.44Z" fill="black"/>
<path d="M1967.62 1425.77C1971.18 1436.67 1978.83 1445.22 1989.51 1449.26C2000.15 1453.32 2012.96 1452.52 2024.47 1447.35C2035.98 1442.17 2045.07 1433.11 2049.1 1422.46C2053.17 1411.79 2051.84 1400.39 2046.05 1390.49C2046.05 1390.49 2046.05 1390.49 2046.05 1390.49C2043.77 1386.3 2041.55 1382.74 2039.27 1379.22C1998.81 1320.74 1949.12 1279.31 1894.16 1245.2C1891.1 1243.34 1888.06 1241.54 1884.95 1239.73C1880.47 1237.16 1874.87 1236.5 1869.57 1237.63C1864.26 1238.78 1859.68 1241.62 1856.66 1245.8C1853.64 1249.97 1852.37 1255.21 1852.94 1260.61C1853.52 1266 1855.9 1271.11 1859.74 1274.56C1859.74 1274.56 1859.74 1274.56 1859.74 1274.56C1862.19 1276.78 1864.56 1278.98 1866.94 1281.23C1909.17 1321.25 1945.72 1370.43 1965.35 1418.8C1966.3 1421.35 1967.12 1423.78 1967.62 1425.77Z" fill="black"/>
<path d="M371.946 926.71C331.105 937.594 299.759 881.282 283.148 818.95C266.536 756.618 273.843 716.194 315.291 700.153C356.739 684.111 395.036 737.118 411.647 799.45C432.599 799.45 470.648 866.45 371.946 926.71Z" fill="black"/>
<path d="M447.532 789.064C445.147 814.784 440.073 868.716 416.073 884.216C356.135 922.926 387.346 840.257 389.521 800.784C391.696 761.311 409.225 733.695 428.379 733.695C447.532 733.695 449.918 763.344 447.532 789.064Z" fill="black"/>
<path d="M379.147 892.95C381.48 922.95 398.947 1003.65 450.147 1086.45" stroke="black" stroke-width="86" stroke-linecap="round"/>
<ellipse cx="1547.65" cy="541.954" rx="11" ry="14.5" transform="rotate(2.68917 1547.65 541.954)" fill="#596828"/>
<ellipse cx="1730.32" cy="1864.45" rx="11" ry="14.5" transform="rotate(2.68917 1730.32 1864.45)" fill="#596828"/>
<ellipse cx="1813.83" cy="1160.95" rx="11.7226" ry="18.9709" transform="rotate(2.68917 1813.83 1160.95)" fill="#596828"/>
<ellipse cx="1687.66" cy="913.096" rx="11" ry="14.5" transform="rotate(-118.931 1687.66 913.096)" fill="#596828"/>
<ellipse cx="1850.32" cy="1470.45" rx="11" ry="14.5" transform="rotate(44.5756 1850.32 1470.45)" fill="#596828"/>
<ellipse cx="1857.7" cy="1661.9" rx="10.06" ry="19.3122" transform="rotate(-47.6085 1857.7 1661.9)" fill="#596828"/>
<ellipse cx="1733.95" cy="1027.99" rx="15.3701" ry="24.3678" transform="rotate(-52.8602 1733.95 1027.99)" fill="#708332"/>
<ellipse cx="1833.15" cy="1603.84" rx="13.569" ry="14.1847" transform="rotate(-52.8602 1833.15 1603.84)" fill="#708332"/>
<ellipse cx="1800.62" cy="1789.7" rx="15.8686" ry="26.0632" transform="rotate(-97.7594 1800.62 1789.7)" fill="#708332"/>
<ellipse cx="1844.76" cy="1340.46" rx="13.75" ry="11.1863" transform="rotate(-77.5112 1844.76 1340.46)" fill="#708332"/>
<ellipse cx="1584.65" cy="750.707" rx="11.2388" ry="7.79564" transform="rotate(-52.8602 1584.65 750.707)" fill="#708332"/>
<path d="M1181.76 142.78C1294.86 152.207 1373.57 182.615 1425.84 238.891C1477.39 294.4 1495.42 367.2 1506.45 441.116C1529.12 593.045 1527.05 774.32 1646.99 981.535C1908.9 1434.04 1766.96 1762.76 1719.21 1831.36C1700.36 1858.45 1661.14 1915.85 1605.14 1972.42C1549.87 2028.24 1475.23 2086.42 1383.49 2113.23L1383.47 2113.23L1381.35 2113.85L1381.33 2113.85L1381.32 2113.85C1294.26 2138.76 1205.39 2145.87 1139.21 2146.98C1105.92 2147.54 1077.89 2146.58 1058.06 2145.47C1048.14 2144.91 1040.34 2144.33 1034.83 2143.86C1032.08 2143.63 1029.83 2143.42 1028.31 2143.27L1028.31 2143.27C1027.87 2143.23 1027.49 2143.19 1027.17 2143.16C1026.86 2143.14 1026.47 2143.12 1026.03 2143.09C1024.52 2142.99 1022.37 2142.85 1019.62 2142.64C1014.13 2142.23 1006.26 2141.56 996.402 2140.53C976.705 2138.48 948.954 2134.97 916.251 2129.13C851.239 2117.52 764.806 2096.36 682.823 2057.94C510.611 1977.21 407.256 1799.23 356.652 1603.74C302.615 1394.99 358.331 1172.6 586.66 897.14C640.356 826.868 673.961 746.463 700.706 662.819C714.14 620.802 725.591 578.831 737.215 536.89C748.718 495.388 760.421 453.794 773.981 414.634C800.872 336.975 837.24 261.972 902.32 209.898C968.991 156.55 1058.41 132.9 1179.09 142.561L1181.76 142.78Z" stroke="black" stroke-width="19"/>
<path d="M1175.89 182.433C1285.5 191.208 1353.47 219.753 1396.53 266.112C1439.31 312.178 1456.05 374.382 1466.89 447.021C1488.68 593.064 1487.47 785.781 1612.37 1001.57C1865.96 1439.71 1725.89 1751.73 1686.38 1808.51C1667.48 1835.65 1630.01 1890.44 1576.71 1944.27C1523.92 1997.6 1454.99 2050.64 1372.35 2074.81L1370.23 2075.42C1289.08 2098.62 1205.44 2105.69 1141.57 2106.93L1138.54 2106.99C1108.39 2107.49 1082.73 2106.71 1063.96 2105.73L1060.3 2105.53C1050.77 2105 1043.35 2104.44 1038.2 2104L1038.21 2104C1035.63 2103.79 1033.54 2103.59 1032.19 2103.46L1032.19 2103.46C1031.76 2103.42 1031.39 2103.38 1031.01 2103.34L1030.36 2103.28L1029.71 2103.24L1028.53 2103.17C1027.86 2103.13 1027.03 2103.07 1026.04 2103L1022.63 2102.76C1017.49 2102.37 1010 2101.73 1000.55 2100.75C981.653 2098.78 954.878 2095.4 923.284 2089.75C860.169 2078.48 777.461 2058.12 699.8 2021.72C542.969 1948.2 444.554 1783.7 395.375 1593.72C345.641 1401.59 394.096 1192.08 617.57 922.531L617.953 922.069L618.317 921.591C676.092 846.039 711.427 760.627 738.805 675C752.532 632.071 764.215 589.238 775.762 547.573C787.289 505.982 798.686 465.533 811.779 427.722C837.911 352.255 871.191 286.035 927.312 241.129C983.341 196.297 1060.86 173.676 1173.23 182.225L1175.89 182.433Z" fill="#EBED9A" stroke="#99A942" stroke-width="61"/>
<path d="M1061.62 254.73C1077.01 271.279 1016.63 274.128 975.544 316.779C934.456 359.429 905.445 433.779 890.415 417.642C875.385 401.505 905.47 324.65 948.719 288.456C991.969 252.263 1046.23 238.182 1061.62 254.73Z" fill="#F8FA98"/>
<ellipse cx="1080.65" cy="1415.95" rx="351" ry="373.5" fill="#94542F"/>
<path d="M1341.85 1331.83C1341.85 1513.76 1199.41 1661.24 1023.71 1661.24C848.007 1661.24 740.131 1565.95 740.131 1384.03C740.131 1202.1 891.58 1105.8 1023.5 1053.1C1225.75 1044.48 1341.85 1149.9 1341.85 1331.83Z" fill="#B16D40"/>
<path d="M1080.65 1061.45C1262.92 1061.45 1412.65 1219.04 1412.65 1415.95C1412.65 1612.87 1262.92 1770.45 1080.65 1770.45C898.389 1770.45 748.653 1612.87 748.653 1415.95C748.653 1219.04 898.389 1061.45 1080.65 1061.45Z" stroke="black" stroke-width="38"/>
<path d="M1072.65 1166.7C1094.85 1188.94 1026.37 1192.04 977.873 1239.67C929.374 1287.31 899.287 1334.95 881.488 1317.16C863.689 1299.36 884.821 1227.32 935.006 1185.96C985.192 1144.59 1050.44 1144.46 1072.65 1166.7Z" fill="white"/>
<ellipse cx="1259.65" cy="639.454" rx="55" ry="79" fill="black"/>
<ellipse cx="1272.65" cy="604.454" rx="13" ry="14" fill="white"/>
<ellipse cx="959.652" cy="639.454" rx="55" ry="79" fill="black"/>
<ellipse cx="972.652" cy="599.454" rx="13" ry="14" fill="white"/>
<path d="M1010.15 823.954C1043.65 905.454 1176.15 909.454 1211.65 823.954" stroke="black" stroke-width="41" stroke-linecap="round"/>
</svg>
