<svg width="2272" height="2438" viewBox="0 0 2272 2438" fill="none" xmlns="http://www.w3.org/2000/svg">
<path d="M1283.97 2267.67C1281.33 2305.39 1322.97 2304.72 1400.11 2310.12C1471.11 2315.08 1529.97 2316.69 1519.59 2266.48C1509.2 2216.27 1392.08 2229.61 1376.44 2182.47C1299.29 2177.08 1286.6 2229.95 1283.97 2267.67Z" fill="black"/>
<path d="M1294.31 2175.17C1299.57 2221.01 1306.33 2247.45 1340.62 2247.45C1374.92 2247.45 1399.57 2210.25 1399.57 2162.55C1399.57 2114.84 1393.87 2076.45 1359.57 2076.45C1277.47 2079.98 1289.05 2129.34 1294.31 2175.17Z" fill="black"/>
<path d="M847.552 2267.03C849.775 2309.45 806.919 2307.68 727.431 2311.84C654.273 2315.68 593.659 2316.04 605.006 2259.92C616.352 2203.8 736.747 2221.64 753.466 2169.1C832.954 2164.93 845.329 2224.61 847.552 2267.03Z" fill="black"/>
<path d="M845.652 2174.67C840.148 2217.02 833.086 2241.45 797.214 2241.45C761.343 2241.45 735.566 2207.08 735.566 2163C735.566 2118.92 741.527 2083.45 777.399 2083.45C863.266 2086.71 851.157 2132.32 845.652 2174.67Z" fill="black"/>
<path d="M1171.35 139.023C1174.67 139.287 1179.48 139.698 1185.48 140.286C1197.47 141.462 1214.22 143.351 1233.33 146.205C1271.33 151.88 1319.53 161.497 1358.06 177.32L1358.32 177.425L1358.56 177.54C1466.71 227.603 1515.27 326.645 1544.24 428.166C1558.73 478.929 1568.54 531.162 1578.26 578.789C1588.05 626.833 1597.69 669.887 1611.77 703.972C1640.57 773.692 1693.9 860.002 1748.34 954.941C1802.38 1049.19 1857.08 1151.28 1886.73 1250.51C1911.32 1332.8 1921.82 1458.42 1903.46 1583.24C1885.11 1707.95 1837.61 1834.07 1744.04 1915.07C1576.26 2060.33 1393.62 2117.86 1253.09 2139.09C1182.82 2149.71 1123 2151.26 1080.68 2150.16C1059.51 2149.6 1042.71 2148.38 1031.14 2147.29C1025.36 2146.75 1020.89 2146.24 1017.83 2145.86C1016.31 2145.67 1015.13 2145.51 1014.33 2145.4C1013.96 2145.35 1013.67 2145.31 1013.46 2145.28C1013.3 2145.26 1013.15 2145.25 1013.04 2145.24C1012.99 2145.23 1012.9 2145.23 1012.8 2145.21C1012.75 2145.21 1012.66 2145.2 1012.55 2145.18C1012.5 2145.18 1012.42 2145.17 1012.33 2145.15C1012.28 2145.15 1012.2 2145.13 1012.1 2145.11C1010.64 2145.02 1008.72 2144.89 1006.39 2144.71L1006.39 2144.71C1000.87 2144.3 992.972 2143.63 983.085 2142.6C963.328 2140.53 935.504 2137.02 902.717 2131.16C837.563 2119.53 750.851 2098.31 668.545 2059.73C495.179 1978.47 391.455 1799.47 340.745 1603.57C286.389 1393.59 342.638 1170.25 571.287 894.378C624.674 824.504 658.148 744.477 684.844 660.984C698.256 619.036 709.69 577.13 721.319 535.168C732.82 493.673 744.546 451.993 758.141 412.732C785.089 334.908 821.69 259.248 887.441 206.635C954.857 152.692 1045.08 128.964 1166.21 138.643C1166.22 138.643 1166.22 138.643 1166.23 138.643C1166.29 138.647 1166.38 138.653 1166.49 138.661C1166.73 138.676 1167.07 138.699 1167.51 138.731C1168.39 138.794 1169.68 138.89 1171.35 139.023Z" fill="#606E33" stroke="black" stroke-width="25"/>
<path d="M1989.41 1381.53C2024.72 1357.61 2029.57 1387.95 2085.07 1453.45C2121.39 1507.05 2152.06 1548.56 2117.87 1577.58C2083.68 1606.59 2027.56 1575.49 1991.24 1521.9C1971.29 1528.87 1918.42 1425.53 1989.41 1381.53Z" fill="black"/>
<path d="M1952.79 1519.44C1948.59 1495 1945.15 1461.71 1959.03 1423.18C1982.83 1357.09 1997.81 1456.45 2005.7 1493.57C2013.58 1530.69 2003.68 1560.81 1985.24 1565.76C1966.79 1570.72 1957 1543.88 1952.79 1519.44Z" fill="black"/>
<path d="M1954.54 1425.77C1958.11 1436.67 1965.75 1445.22 1976.43 1449.26C1987.08 1453.32 1999.88 1452.52 2011.39 1447.35C2022.91 1442.17 2032 1433.11 2036.02 1422.46C2040.09 1411.79 2038.76 1400.39 2032.97 1390.49C2032.97 1390.49 2032.97 1390.49 2032.97 1390.49C2030.69 1386.3 2028.47 1382.74 2026.19 1379.22C1985.73 1320.74 1936.04 1279.31 1881.08 1245.2C1878.03 1243.34 1874.98 1241.54 1871.87 1239.73C1867.39 1237.16 1861.79 1236.5 1856.49 1237.63C1851.18 1238.78 1846.61 1241.62 1843.59 1245.8C1840.56 1249.97 1839.29 1255.21 1839.86 1260.61C1840.45 1266 1842.82 1271.11 1846.66 1274.56C1846.66 1274.56 1846.66 1274.56 1846.66 1274.56C1849.11 1276.78 1851.49 1278.98 1853.86 1281.23C1896.1 1321.25 1932.64 1370.43 1952.27 1418.8C1953.23 1421.35 1954.04 1423.78 1954.54 1425.77Z" fill="black"/>
<path d="M358.869 926.71C318.028 937.594 286.682 881.282 270.071 818.95C253.459 756.618 260.766 716.194 302.214 700.153C343.662 684.111 381.959 737.118 398.57 799.45C419.522 799.45 457.571 866.45 358.869 926.71Z" fill="black"/>
<path d="M434.455 789.064C432.07 814.784 426.996 868.716 402.996 884.216C343.058 922.926 374.269 840.257 376.444 800.784C378.619 761.311 396.148 733.695 415.302 733.695C434.455 733.695 436.841 763.344 434.455 789.064Z" fill="black"/>
<path d="M366.07 892.95C368.403 922.95 385.87 1003.65 437.07 1086.45" stroke="black" stroke-width="86" stroke-linecap="round"/>
<ellipse cx="1534.58" cy="541.954" rx="11" ry="14.5" transform="rotate(2.68917 1534.58 541.954)" fill="#596828"/>
<ellipse cx="1717.24" cy="1864.45" rx="11" ry="14.5" transform="rotate(2.68917 1717.24 1864.45)" fill="#596828"/>
<ellipse cx="1800.75" cy="1160.95" rx="11.7226" ry="18.9709" transform="rotate(2.68917 1800.75 1160.95)" fill="#596828"/>
<ellipse cx="1674.59" cy="913.096" rx="11" ry="14.5" transform="rotate(-118.931 1674.59 913.096)" fill="#596828"/>
<ellipse cx="1837.24" cy="1470.45" rx="11" ry="14.5" transform="rotate(44.5756 1837.24 1470.45)" fill="#596828"/>
<ellipse cx="1844.62" cy="1661.9" rx="10.06" ry="19.3122" transform="rotate(-47.6085 1844.62 1661.9)" fill="#596828"/>
<ellipse cx="1720.87" cy="1027.99" rx="15.3701" ry="24.3678" transform="rotate(-52.8602 1720.87 1027.99)" fill="#708332"/>
<ellipse cx="1820.07" cy="1603.84" rx="13.569" ry="14.1847" transform="rotate(-52.8602 1820.07 1603.84)" fill="#708332"/>
<ellipse cx="1787.54" cy="1789.7" rx="15.8686" ry="26.0632" transform="rotate(-97.7594 1787.54 1789.7)" fill="#708332"/>
<ellipse cx="1831.68" cy="1340.46" rx="13.75" ry="11.1863" transform="rotate(-77.5112 1831.68 1340.46)" fill="#708332"/>
<ellipse cx="1571.58" cy="750.707" rx="11.2388" ry="7.79564" transform="rotate(-52.8602 1571.58 750.707)" fill="#708332"/>
<path d="M1168.69 142.78C1281.78 152.207 1360.49 182.615 1412.76 238.891C1464.32 294.4 1482.34 367.2 1493.37 441.116C1516.05 593.045 1513.97 774.32 1633.91 981.535C1895.82 1434.04 1753.88 1762.76 1706.13 1831.36C1687.28 1858.45 1648.06 1915.85 1592.06 1972.42C1536.79 2028.24 1462.16 2086.42 1370.42 2113.23L1370.39 2113.23L1368.27 2113.85L1368.26 2113.85L1368.24 2113.85C1281.18 2138.76 1192.31 2145.87 1126.14 2146.98C1092.84 2147.54 1064.81 2146.58 1044.98 2145.47C1035.06 2144.91 1027.26 2144.33 1021.76 2143.86C1019.01 2143.63 1016.75 2143.42 1015.23 2143.27L1015.23 2143.27C1014.8 2143.23 1014.41 2143.19 1014.1 2143.16C1013.78 2143.14 1013.39 2143.12 1012.96 2143.09C1011.44 2142.99 1009.29 2142.85 1006.54 2142.64C1001.05 2142.23 993.183 2141.56 983.325 2140.53C963.628 2138.48 935.877 2134.97 903.174 2129.13C838.162 2117.52 751.729 2096.36 669.746 2057.94C497.533 1977.21 394.179 1799.23 343.575 1603.74C289.538 1394.99 345.254 1172.6 573.583 897.14C627.279 826.868 660.884 746.463 687.629 662.819C701.063 620.802 712.514 578.831 724.138 536.89C735.64 495.388 747.344 453.794 760.904 414.634C787.795 336.975 824.163 261.972 889.243 209.898C955.914 156.55 1045.34 132.9 1166.01 142.561L1168.69 142.78Z" stroke="black" stroke-width="19"/>
<path d="M1162.82 182.433C1272.42 191.208 1340.39 219.753 1383.45 266.112C1426.24 312.178 1442.97 374.382 1453.81 447.021C1475.61 593.064 1474.39 785.781 1599.29 1001.57C1852.89 1439.71 1712.82 1751.73 1673.3 1808.51C1654.41 1835.65 1616.93 1890.44 1563.64 1944.27C1510.85 1997.6 1441.91 2050.64 1359.28 2074.81L1357.16 2075.42C1276.01 2098.62 1192.36 2105.69 1128.49 2106.93L1125.47 2106.99C1095.31 2107.49 1069.65 2106.71 1050.88 2105.73L1047.22 2105.53C1037.7 2105 1030.28 2104.44 1025.13 2104L1025.13 2104C1022.55 2103.79 1020.47 2103.59 1019.12 2103.46L1019.12 2103.46C1018.68 2103.42 1018.32 2103.38 1017.93 2103.34L1017.28 2103.28L1016.63 2103.24L1015.46 2103.17C1014.78 2103.13 1013.95 2103.07 1012.97 2103L1009.56 2102.76C1004.41 2102.37 996.926 2101.73 987.475 2100.75C968.575 2098.78 941.801 2095.4 910.207 2089.75C847.091 2078.48 764.384 2058.12 686.723 2021.72C529.892 1948.2 431.477 1783.7 382.298 1593.72C332.564 1401.59 381.019 1192.08 604.493 922.531L604.876 922.069L605.24 921.591C663.015 846.039 698.35 760.627 725.728 675C739.455 632.071 751.137 589.238 762.685 547.573C774.212 505.982 785.609 465.533 798.702 427.722C824.834 352.255 858.114 286.035 914.235 241.129C970.264 196.297 1047.79 173.676 1160.16 182.225L1162.82 182.433Z" fill="#EBED9A" stroke="#99A942" stroke-width="61"/>
<path d="M1048.55 254.73C1063.94 271.279 1003.56 274.128 962.467 316.779C921.378 359.429 892.368 433.779 877.338 417.642C862.308 401.505 892.393 324.65 935.642 288.456C978.892 252.263 1033.15 238.182 1048.55 254.73Z" fill="#F8FA98"/>
<ellipse cx="1067.58" cy="1415.95" rx="351" ry="373.5" fill="#94542F"/>
<path d="M1328.77 1331.83C1328.77 1513.76 1186.34 1661.24 1010.63 1661.24C834.929 1661.24 727.054 1565.95 727.054 1384.03C727.054 1202.1 878.503 1105.8 1010.43 1053.1C1212.67 1044.48 1328.77 1149.9 1328.77 1331.83Z" fill="#B16D40"/>
<path d="M1067.58 1061.45C1249.84 1061.45 1399.58 1219.04 1399.58 1415.95C1399.58 1612.87 1249.84 1770.45 1067.58 1770.45C885.312 1770.45 735.576 1612.87 735.576 1415.95C735.576 1219.04 885.312 1061.45 1067.58 1061.45Z" stroke="black" stroke-width="38"/>
<path d="M1059.57 1166.7C1081.78 1188.94 1013.29 1192.04 964.795 1239.67C916.297 1287.31 886.21 1334.95 868.411 1317.16C850.612 1299.36 871.744 1227.32 921.929 1185.96C972.115 1144.59 1037.37 1144.46 1059.57 1166.7Z" fill="white"/>
<ellipse cx="1246.57" cy="639.454" rx="55" ry="79" fill="black"/>
<ellipse cx="1259.57" cy="604.454" rx="13" ry="14" fill="white"/>
<ellipse cx="946.575" cy="639.454" rx="55" ry="79" fill="black"/>
<ellipse cx="959.575" cy="599.454" rx="13" ry="14" fill="white"/>
<path d="M997.075 823.954C1030.57 905.454 1163.07 909.454 1198.57 823.954" stroke="black" stroke-width="41" stroke-linecap="round"/>
</svg>
